<?xml version="1.0" encoding="utf-8"?>
<!-- Uploaded to: SVG Repo, www.svgrepo.com, Generator: SVG Repo Mixer Tools -->
<svg width="800px" height="800px" viewBox="0 0 1024 1024" class="icon"  version="1.1" xmlns="http://www.w3.org/2000/svg"><path d="M751.1 666.5c0 16.1-13 29.1-29.1 29.1H300.5c-16.1 0-29.1-13-29.1-29.1V419.4c0-16.1 13-29.1 29.1-29.1H722c16.1 0 29.1 13 29.1 29.1v247.1z" fill="#EFE2C2" /><path d="M344.1 390.3h72.7v305.2h-72.7zM605.8 390.3h72.7v305.2h-72.7z" fill="#FAE274" /><path d="M722 375.8H591.1V360c0-23.3-19.3-42.3-43-42.3h-73.7c-23.7 0-43 19-43 42.3v15.8H300.6c-24 0-43.6 19.6-43.6 43.6v247.1c0 24 19.6 43.6 43.6 43.6H722c24 0 43.6-19.6 43.6-43.6V419.4c0-24.1-19.5-43.6-43.6-43.6z m-130.8 29V681H431.3V404.8h159.9z m-130.8-44.9c0-7.3 6.3-13.2 14-13.2h73.7c7.7 0 14 5.9 14 13.2v15.8H460.4v-15.8zM286 666.5V419.4c0-8 6.5-14.5 14.5-14.5h29.1V681h-29.1c-8 0-14.5-6.5-14.5-14.5z m72.7 14.5V404.8h43.6V681h-43.6z m261.6 0V404.8h43.6V681h-43.6z m116.3-14.5c0 8-6.5 14.5-14.5 14.5H693V404.8h29c8 0 14.5 6.5 14.5 14.5v247.2z" fill="#211F1E" /></svg>