<?xml version="1.0" encoding="utf-8"?>
<!-- Uploaded to: SVG Repo, www.svgrepo.com, Generator: SVG Repo Mixer Tools -->
<svg width="800px" height="800px" viewBox="0 0 1024 1024" class="icon"  version="1.1" xmlns="http://www.w3.org/2000/svg"><path d="M688.5 325.4l139.9 41.5L659 536.3 477.5 354.8l169.4-169.4z" fill="#F05A1F" /><path d="M274.68 446.77l36.264-36.285L770.83 870.11l-36.264 36.285zM292.8 356c-20.1-20-52.6-20-72.6 0-20.1 20-20.1 52.6 0 72.6 20 20 52.5 20 72.6 0 20.1-20.1 20.1-52.6 0-72.6z" fill="#CCCCCC" /><path d="M307.21 406.621L488.722 225.11 670.235 406.62 488.722 588.134z" fill="#F05A1F" /><path d="M645.5 548.4c3.3 3.3 7.6 5 12 5 4.3 0 8.7-1.7 12-5L837 379.5c4.2-4.2 5.9-10.4 4.4-16.3-1.5-5.8-5.9-10.5-11.6-12.2l-129.6-38.8-38.5-130.6c-1.7-5.8-6.3-10.2-12.1-11.7-5.8-1.4-11.9 0.2-16.1 4.5L547.6 261 501 214c-6.6-6.7-17.3-6.7-23.9 0L322.9 369.5c-3.3-9.1-8.4-17.6-15.7-24.9-12.8-12.9-29.8-20-47.9-20s-35.1 7.1-47.9 20c-12.8 12.9-19.8 30-19.8 48.3 0 18.2 7 35.4 19.8 48.2 12.8 12.9 29.8 20 47.9 20 2.5 0 5-0.2 7.4-0.4L720 917.6c3.2 3.2 7.5 5 12 5s8.8-1.8 12-5l35.9-36.2c6.6-6.7 6.6-17.5 0-24.1L512.9 588l85.9-86.6 46.7 47z m-1.4-49.7l-21.3-21.4 25.1-25.3-3.8 46.7z m-6.7-279.8l33 112c1.6 5.5 5.9 9.9 11.4 11.5L793 375.7 678.7 490.8l6.7-82.3v-0.7c0-0.2 0.1-0.5 0.1-0.7 0-0.4-0.1-0.7-0.1-1 0-0.6-0.1-1.1-0.2-1.7-0.1-0.5-0.2-1-0.3-1.6-0.2-0.6-0.3-1.1-0.5-1.7-0.2-0.5-0.4-1-0.6-1.4-0.3-0.5-0.5-1-0.8-1.5-0.3-0.5-0.6-0.9-0.9-1.3-0.3-0.5-0.7-0.9-1.1-1.3-0.2-0.2-0.3-0.4-0.4-0.5l-109-109.8 65.8-66.4z m-401.9 198c-6.4-6.5-9.9-15-9.9-24.1 0-9.1 3.5-17.7 9.9-24.1 6.4-6.4 14.9-10 23.9-10 9 0 17.5 3.5 23.9 10 13.2 13.3 13.2 35 0 48.2-12.8 12.9-35 12.9-47.8 0z m496.6 464.3L301.3 447.1l5.9-6 5.9-6 163.9 165 267 269.1-11.9 12zM333.4 407.1L489 250.3l155.6 156.8L489 563.9 333.4 407.1z" fill="#211F1E" /><path d="M548.5 389.1H505v-43.9c0-9.4-7.6-17.1-16.9-17.1-9.3 0-16.9 7.6-16.9 17.1v43.9h-43.5c-9.3 0-16.9 7.6-16.9 17.1 0 9.4 7.6 17.1 16.9 17.1h43.5v43.9c0 9.4 7.6 17.1 16.9 17.1 9.3 0 16.9-7.6 16.9-17.1v-43.9h43.5c9.3 0 16.9-7.6 16.9-17.1 0.1-9.5-7.5-17.1-16.9-17.1z" fill="#211F1E" /></svg>