<?xml version="1.0" encoding="utf-8"?>
<!-- Uploaded to: SVG Repo, www.svgrepo.com, Generator: SVG Repo Mixer Tools -->
<svg width="800px" height="800px" viewBox="0 0 1024 1024" class="icon"  version="1.1" xmlns="http://www.w3.org/2000/svg"><path d="M219.9 347.4h583.3v379.8H219.9z" fill="#F4867B" /><path d="M803.2 740.8H219.9c-7.5 0-13.6-6.1-13.6-13.6V347.4c0-7.5 6.1-13.6 13.6-13.6h583.3c7.5 0 13.6 6.1 13.6 13.6v379.8c0 7.5-6.1 13.6-13.6 13.6z m-569.7-27.2h556.1V361H233.5v352.6z" fill="#211F1E" /><path d="M796.4 483H226.7c-3.7 0-6.8-3-6.8-6.8 0-3.7 3-6.8 6.8-6.8h569.7c3.7 0 6.8 3 6.8 6.8s-3 6.8-6.8 6.8z" fill="#211F1E" /><path d="M335.2 384.7h352.7V439H335.2z" fill="#EFE2C2" /><path d="M687.9 445.7H335.2c-3.7 0-6.8-3-6.8-6.8v-54.3c0-3.7 3-6.8 6.8-6.8h352.7c3.7 0 6.8 3 6.8 6.8V439c0 3.7-3 6.7-6.8 6.7zM342 432.2h339.1v-40.7H342v40.7zM281 432.2c-11.2 0-20.3-9.1-20.3-20.3 0-11.2 9.1-20.3 20.3-20.3s20.3 9.1 20.3 20.3c0 11.1-9.1 20.3-20.3 20.3z m0-27.2c-3.7 0-6.8 3-6.8 6.8s3 6.8 6.8 6.8 6.8-3 6.8-6.8-3.1-6.8-6.8-6.8zM742.2 445.7c-18.7 0-33.9-15.2-33.9-33.9s15.2-33.9 33.9-33.9 33.9 15.2 33.9 33.9-15.2 33.9-33.9 33.9z m0-54.2c-11.2 0-20.3 9.1-20.3 20.3 0 11.2 9.1 20.3 20.3 20.3s20.3-9.1 20.3-20.3c0-11.2-9.1-20.3-20.3-20.3z" fill="#211F1E" /><path d="M681.1 418.6H342c-3.7 0-6.8-3-6.8-6.8 0-3.7 3-6.8 6.8-6.8h339.1c3.7 0 6.8 3 6.8 6.8s-3 6.8-6.8 6.8zM416.7 727.6c-3.7 0-6.8-3-6.8-6.8V476.7c0-3.7 3-6.8 6.8-6.8 3.7 0 6.8 3 6.8 6.8v244.2c0 3.7-3.1 6.7-6.8 6.7zM606.6 727.6c-3.7 0-6.8-3-6.8-6.8V476.7c0-3.7 3-6.8 6.8-6.8 3.7 0 6.8 3 6.8 6.8v244.2c0 3.7-3.1 6.7-6.8 6.7z" fill="#211F1E" /><path d="M321.7 598.3m-67.8 0a67.8 67.8 0 1 0 135.6 0 67.8 67.8 0 1 0-135.6 0Z" fill="#96C8D1" /><path d="M321.7 672.9c-41.1 0-74.6-33.5-74.6-74.6 0-41.1 33.5-74.6 74.6-74.6 41.1 0 74.6 33.5 74.6 74.6 0 41.2-33.4 74.6-74.6 74.6z m0-135.6c-33.7 0-61 27.4-61 61s27.4 61 61 61 61-27.4 61-61-27.3-61-61-61z" fill="#211F1E" /><path d="M321.7 625.5c-15 0-27.1-12.2-27.1-27.1 0-15 12.2-27.1 27.1-27.1 15 0 27.1 12.2 27.1 27.1 0.1 14.9-12.1 27.1-27.1 27.1z m0-40.7c-7.5 0-13.6 6.1-13.6 13.6s6.1 13.6 13.6 13.6 13.6-6.1 13.6-13.6-6.1-13.6-13.6-13.6z" fill="#211F1E" /><path d="M321.7 598.3m-6.8 0a6.8 6.8 0 1 0 13.6 0 6.8 6.8 0 1 0-13.6 0Z" fill="#211F1E" /><path d="M579.4 639H443.7c-3.7 0-6.8-3-6.8-6.8v-67.8c0-3.7 3-6.8 6.8-6.8h135.6c3.7 0 6.8 3 6.8 6.8v67.8c0.1 3.8-3 6.8-6.7 6.8z m-128.9-13.5h122.1v-54.3H450.5v54.3zM602.6 537.3h-182c-3.7 0-6.8-3-6.8-6.8s3-6.8 6.8-6.8h182c3.7 0 6.8 3 6.8 6.8s-3.1 6.8-6.8 6.8zM602.6 672.9h-182c-3.7 0-6.8-3-6.8-6.8 0-3.7 3-6.8 6.8-6.8h182c3.7 0 6.8 3 6.8 6.8-0.1 3.8-3.1 6.8-6.8 6.8z" fill="#211F1E" /><path d="M457.4 503.3m-6.8 0a6.8 6.8 0 1 0 13.6 0 6.8 6.8 0 1 0-13.6 0Z" fill="#211F1E" /><path d="M484.5 503.3m-6.8 0a6.8 6.8 0 1 0 13.6 0 6.8 6.8 0 1 0-13.6 0Z" fill="#211F1E" /><path d="M484.4 598.3m-6.8 0a6.8 6.8 0 1 0 13.6 0 6.8 6.8 0 1 0-13.6 0Z" fill="#211F1E" /><path d="M538.8 598.3m-6.8 0a6.8 6.8 0 1 0 13.6 0 6.8 6.8 0 1 0-13.6 0Z" fill="#211F1E" /><path d="M565.9 510.1h-40.7c-3.7 0-6.8-3-6.8-6.8 0-3.7 3-6.8 6.8-6.8h40.7c3.7 0 6.8 3 6.8 6.8 0 3.7-3.1 6.8-6.8 6.8zM721.8 279.6H301.3c-7.5 0-13.6 6.1-13.6 13.6v51c0 7.5 6.1 13.6 13.6 13.6s13.6-6.1 13.6-13.6v-37.4h393.4v37.4c0 7.5 6.1 13.6 13.6 13.6s13.6-6.1 13.6-13.6v-51c-0.1-7.5-6.2-13.6-13.7-13.6zM457.3 700c-3.7 0-6.8-3-6.8-6.8 0-3.7 3-6.8 6.8-6.8s6.8 3 6.8 6.8-3 6.8-6.8 6.8zM484.4 700c-3.7 0-6.8-3-6.8-6.8 0-3.7 3-6.8 6.8-6.8s6.8 3 6.8 6.8-3 6.8-6.8 6.8zM538.7 700c-3.7 0-6.8-3-6.8-6.8 0-3.7 3-6.8 6.8-6.8s6.8 3 6.8 6.8-3.1 6.8-6.8 6.8zM565.8 700c-3.7 0-6.8-3-6.8-6.8 0-3.7 3-6.8 6.8-6.8 3.7 0 6.8 3 6.8 6.8s-3 6.8-6.8 6.8zM511.6 700c-3.7 0-6.8-3-6.8-6.8 0-3.7 3-6.8 6.8-6.8 3.7 0 6.8 3 6.8 6.8s-3.1 6.8-6.8 6.8z" fill="#211F1E" /><path d="M701.5 598.3m-67.8 0a67.8 67.8 0 1 0 135.6 0 67.8 67.8 0 1 0-135.6 0Z" fill="#96C8D1" /><path d="M701.5 672.9c-41.1 0-74.6-33.5-74.6-74.6 0-41.1 33.5-74.6 74.6-74.6 41.1 0 74.6 33.5 74.6 74.6 0 41.2-33.5 74.6-74.6 74.6z m0-135.6c-33.7 0-61 27.4-61 61s27.4 61 61 61c33.7 0 61-27.4 61-61s-27.4-61-61-61z" fill="#211F1E" /><path d="M701.5 625.5c-15 0-27.1-12.2-27.1-27.1 0-15 12.2-27.1 27.1-27.1 15 0 27.1 12.2 27.1 27.1 0 14.9-12.2 27.1-27.1 27.1z m0-40.7c-7.5 0-13.6 6.1-13.6 13.6S694 612 701.5 612s13.6-6.1 13.6-13.6c-0.1-7.5-6.2-13.6-13.6-13.6z" fill="#211F1E" /><path d="M701.5 598.3m-6.8 0a6.8 6.8 0 1 0 13.6 0 6.8 6.8 0 1 0-13.6 0Z" fill="#211F1E" /></svg>