<?xml version="1.0" encoding="utf-8"?>
<!-- Uploaded to: SVG Repo, www.svgrepo.com, Generator: SVG Repo Mixer Tools -->
<svg width="800px" height="800px" viewBox="0 0 1024 1024" class="icon"  version="1.1" xmlns="http://www.w3.org/2000/svg"><path d="M497.3 698.9l2.5 35.9 35.2 24.8v-60.7" fill="#20B573" /><path d="M566 623.7v18.4s-21.2 19.4-21.2 68h-54.6c0-48.6-21.2-68-21.2-68v-18.4" fill="#CCCCCC" /><path d="M468.9 303.2H566v320.5h-97.1z" fill="#20B573" /><path d="M478.6 274.1h77.7v29.1h-77.7z" fill="#20B573" /><path d="M575.7 303.2c0-5.4-4.3-9.7-9.7-9.7v-19.4c0-5.4-4.3-9.7-9.7-9.7h-77.7c-5.4 0-9.7 4.3-9.7 9.7v19.4c-5.4 0-9.7 4.3-9.7 9.7v320.5c0 0.2 0 0.3 0.1 0.5 0 0.2-0.1 0.3-0.1 0.5v18.4c0 2.7 1.1 5.3 3.2 7.2 0.2 0.2 18.1 17.7 18.1 60.8 0 5.4 4.3 9.7 9.7 9.7v14c0 3.4 1.8 6.6 4.7 8.3L530 768c1.5 0.9 3.3 1.4 5 1.4 1.6 0 3.3-0.4 4.8-1.3 3-1.7 4.9-5 4.9-8.5v-38.8c5.4 0 9.7-4.3 9.7-9.7 0-43 17.4-60.2 18.1-60.8 2-1.8 3.2-4.4 3.2-7.2v-18.4c0-0.2 0-0.3-0.1-0.5 0-0.2 0.1-0.3 0.1-0.5V303.2z m-87.4-19.4h58.3v9.7h-58.3v-9.7z m37 458.6l-15.8-13.2v-8.5h15.8v21.7z m31-103c-6.1 7.4-18.9 26.9-21 62h-35.8c-2-35.1-14.9-54.6-21-62v-6h77.7v6z m0-25.4h-77.7V313h77.7v301z" fill="#211F1E" /><path d="M502.8 584.7h0.1c2.7 0 4.7-2.2 4.7-4.9l0.1-232.9c0-2.7-2.2-4.9-4.9-4.9s-4.9 2.2-4.9 4.9l0.1 232.9c0 2.7 2.2 4.9 4.8 4.9zM532.1 468.2c2.7 0 4.9-2.2 4.9-4.9V346.9c0-2.7-2.2-4.9-4.9-4.9s-4.9 2.2-4.9 4.9v116.5c0 2.7 2.2 4.8 4.9 4.8z" fill="#211F1E" /></svg>