<?xml version="1.0" encoding="utf-8"?>
<!-- Uploaded to: SVG Repo, www.svgrepo.com, Generator: SVG Repo Mixer Tools -->
<svg width="800px" height="800px" viewBox="0 0 1024 1024" class="icon"  version="1.1" xmlns="http://www.w3.org/2000/svg"><path d="M424.3 268.7h168.3v539.5H424.3z" fill="#CCCCCC" /><path d="M509.6 399.6c112.9 0 192.3-91.5 192.3-204.3H317.3c0 112.8 79.4 204.3 192.3 204.3z" fill="#CCCCCC" /><path d="M317.3 123.1h384.6v72.1H317.3z" fill="#EDEDED" /><path d="M424.3 808.2h168.3v84.2H424.3z" fill="#CCCCCC" /><path d="M701.9 99.1H317.3c-13.3 0-24 10.8-24 24v72.1c0 87.5 42.1 160.3 107 198.8v498.3c0 13.3 10.8 24 24 24h168.3c13.3 0 24-10.8 24-24V395.5C682.9 357.4 726 283.7 726 195.2v-72.1c0-13.3-10.8-24-24.1-24z m-360.6 48.1h336.6v24H341.3v-24z m227.3 721.2H448.4v-36.2h120.2v36.2z m0-84.2H448.4V414.9c19.3 5.6 39.8 8.7 61.2 8.7 20.6 0 40.3-3 59-8.2v368.8z m-59-408.7c-88.3 0-156.6-65.7-166.9-156.3h333.9c-10.4 90.7-78.7 156.3-167 156.3z" fill="#211F1E" /><path d="M484.4 567.1v73.7c0 12.9 10.8 23.3 24 23.3 13.3 0 24-10.4 24-23.3v-73.7c0-12.8-10.8-23.3-24-23.3s-24 10.5-24 23.3z" fill="#211F1E" /></svg>