<?xml version="1.0" encoding="utf-8"?>
<!-- Uploaded to: SVG Repo, www.svgrepo.com, Generator: SVG Repo Mixer Tools -->
<svg width="800px" height="800px" viewBox="0 0 1024 1024" class="icon"  version="1.1" xmlns="http://www.w3.org/2000/svg"><path d="M507.3 565.2c-115.2 0-184.9-57.6-187.8-60-17.8-15-20.4-41.9-5.8-60.1 14.5-18.1 34.2-18.4 58.4-6.1 8.1 4.1 51.6 40.8 135.1 40.8 85.8 0 140.4-39.1 145.5-42.4 24.5-15.9 44.7-9.1 58 10 13.3 19.1 9.1 45.6-9.5 59.3-3.1 2.5-80.2 58.5-193.9 58.5z" fill="#F2E2C8" /><path d="M506.7 623.2c-135.2 0-216.7-74.9-220.1-78.1-20.4-19.1-21.8-51.5-3.2-72.4 18.6-20.8 48.8-20.9 70.4-3.5 6.9 5.5 58.6 51.5 152.9 51.5 97 0 164-52.9 164.7-53.4 21.5-17.7 53-14.2 70.3 7.9 17.3 22.1 13.8 54.3-7.7 72-3.8 3.1-93.9 76-227.3 76z" fill="#E15F3D" /><path d="M507.3 664.2c-115.2 0-184.9-57.6-187.8-60-17.8-15-20.4-41.9-5.8-60.1 14.5-18.1 31.6-19.6 56.8-4 14.2 8.8 53.2 38.8 136.7 38.8 85.8 0 144.8-42 145.5-42.4 24.7-15.2 44.7-9.1 58 10 13.3 19.1 10.1 44.7-9.5 59.3-3.1 2.4-80.2 58.4-193.9 58.4z" fill="#F2E2C8" /><path d="M750.5 468.3c-7-8.9-16-15.4-26.1-19.3-1.3-2.7-2.7-5.3-4.4-7.8-10.8-15.5-25-23.7-41.1-23.7-10.5 0-21.4 3.6-32.3 10.7l-1 0.7c-17.9 12-67.2 39.9-138.3 39.9-69.4 0-109.1-26.1-124.1-35.9-2.6-1.7-4.4-2.9-6-3.7-12.9-6.5-24.3-9.7-34.8-9.7-14.8 0-27.4 6.3-37.4 18.8-2.8 3.5-5 7.2-6.8 11.1-8.8 3.3-16.7 8.7-23.2 16-22.6 25.4-20.9 64.8 3.9 88 0.8 0.7 5.8 5.3 14.6 12-1.9 17.5 4.6 35.5 18.8 47.5 3 2.6 75.9 62.6 195 62.6 118 0 197.4-58.1 200.7-60.6 16.6-12.4 24.2-31.5 21.6-50.4 6.7-4.7 10.7-7.9 11.5-8.5 26.1-21.6 30.4-60.9 9.4-87.7zM367.1 449c0.8 0.4 2.1 1.3 3.8 2.4 14.9 9.8 60.3 39.6 136.4 39.6 77.3 0 131.2-30.6 150.8-43.7l0.8-0.5c13.5-8.8 25.2-9.3 35-1.4-10.8 1.6-21.1 6.1-29.6 13.1-0.6 0.5-65.1 50.9-157.7 50.9-75.3 0-123-30.1-144.8-48.1l-1.1-0.9c-9.5-7.6-20.6-12.5-32.1-14.3 4.1-3 8.6-4.4 13.7-4.4 7 0.1 15.3 2.5 24.8 7.3z m327.5 147.8c-0.8 0.6-76.6 56.2-187.3 56.2-111.1 0-177.8-55-180.6-57.4-13.1-11.1-15-31-4.2-44.5 7.5-9.4 13.5-10.6 18-10.6 6.4 0 14.5 3 24.2 9 1.1 0.7 2.3 1.5 3.7 2.4C386 563.3 427.2 590 507.3 590c84.5 0 145-39.7 151.3-44 17.7-10.9 32-8.9 42.9 6.9 10.4 14.7 7.4 33.2-6.9 43.9z m32.2-58.2c-0.5 0.4-2.3 1.8-5.2 4-0.5-0.9-1-1.7-1.6-2.6-17.6-25.2-45.1-30.5-73.1-13.2l-0.7 0.4c-6 4.1-61.2 40.3-138.9 40.3-73.5 0-110.8-24.2-126.7-34.5-1.5-1-2.9-1.9-4.1-2.6-13.5-8.3-25.2-12.4-36-12.4-13.4 0-25.4 6.4-35.5 19-1.5 1.8-2.8 3.8-4 5.7-4-3.3-6.3-5.4-6.9-5.9-15.9-14.9-17.1-40.4-2.5-56.7 7.1-8 16.9-12.4 27.5-12.4 9.6 0 19.4 3.6 27.5 10.1l0.9 0.8c41.5 34.3 98 53.2 159.1 53.2 101 0 171.1-55.4 171.8-56 6.9-5.7 15.3-8.7 24.1-8.7 11.8 0 22.8 5.4 30.2 14.9 13.6 17.4 11 42.7-5.9 56.6z" fill="#211F1E" /><path d="M504.4 550c-14.6-0.2-20.9-11.3-24.7-18-1.2-2.1-3.2-5.7-4.3-6.2-1.5 0.3-4.1 3.4-5.6 5.2-5 5.8-13.3 15.5-27.4 13-14.2-3-18.5-15-21-22.3-0.8-2.2-2.2-6.4-3.2-7l-0.6-0.2c-1.1 0.1-4.2 2.6-6.1 4.1-6 4.8-16 12.7-29.5 7.5-13.4-5.7-15.5-18.3-16.7-25.8-0.5-3.1-1.2-7.3-2.2-7.9-5.5-2.8-7.8-9.5-5-15.1 2.8-5.5 9.5-7.8 15.1-5 11.3 5.7 13.1 16.9 14.3 24.3 1 6.3 1.6 8 2.9 8.6 0.8 0.3 2-0.2 7.1-4.3 5.9-4.7 14.7-11.7 26.8-7.9 11.8 3.3 15.6 14 18.1 21.1 2.1 5.9 2.9 7.4 4.1 7.7 0.8 0.1 2.2-1 6.1-5.6 4.9-5.7 12.2-14.3 24.8-12.9 12.2 1 17.9 10.8 21.6 17.4 3 5.2 4.1 6.7 5.3 6.7 0.8 0 2-1.4 5-6.7 3.7-6.5 9.4-16.4 22-17.4 12.2-1.4 19.6 7.3 24.5 13 3.9 4.5 5.2 5.7 6.4 5.5 0.9-0.2 1.8-1.8 3.8-7.6 2.5-7.1 6.3-17.8 18.4-21.2 11.8-3.7 20.7 3.3 26.5 8 5.1 4 6.3 4.6 7.5 4.1 1-0.4 1.6-2.1 2.7-8.5 1.2-7.4 3-18.6 14.3-24.3 5.5-2.8 12.3-0.6 15.1 5 2.8 5.5 0.6 12.3-5 15.1-1.1 0.5-1.7 4.8-2.3 7.9-1.2 7.5-3.3 20.2-16.4 25.7-13.8 5.3-23.8-2.6-29.8-7.4-1.9-1.5-5-4-6.1-4.1-1.5 0.8-2.9 5-3.7 7.2-2.5 7.2-6.8 19.3-20.7 22.2-14.4 2.6-22.7-7.2-27.7-13-1.6-1.8-4.2-4.9-5.3-5.2-1.4 0.6-3.4 4.1-4.6 6.2-3.9 6.8-10.3 17.9-24.5 18.1z" fill="#F7B71B" /></svg>