<?xml version="1.0" encoding="utf-8"?>
<!-- Uploaded to: SVG Repo, www.svgrepo.com, Generator: SVG Repo Mixer Tools -->
<svg width="800px" height="800px" viewBox="0 0 1024 1024" class="icon"  version="1.1" xmlns="http://www.w3.org/2000/svg"><path d="M478.6 734.9C276 734.9 276 553.1 276 553.1v-71.5h405.2v71.5s0 181.8-202.6 181.8z" fill="#F7BE29" /><path d="M715 498.5h-17v-16.9c0-9.3-7.6-16.9-16.9-16.9H276c-9.3 0-16.9 7.6-16.9 16.9v71.5c0 2 2.5 198.6 219.5 198.6 135.7 0 187.5-77 207.3-135.1H715c27.9 0 50.6-22.7 50.6-50.6v-16.9c0-27.8-22.7-50.6-50.6-50.6zM478.6 718c-182.8 0-185.7-158.2-185.7-164.9v-54.6h371.4v54.6c-0.1 6.7-2.9 164.9-185.7 164.9z m253.3-152c0 9.3-7.6 16.9-16.9 16.9h-20.3c3.2-17.5 3.4-29.3 3.4-29.8v-20.8H715c9.3 0 16.9 7.6 16.9 16.9V566zM377.3 431.1c9.3 0 16.9-7.6 16.9-16.9v-67.5c0-9.3-7.6-16.9-16.9-16.9-9.3 0-16.9 7.6-16.9 16.9v67.5c0 9.3 7.6 16.9 16.9 16.9zM579.9 431.1c9.3 0 16.9-7.6 16.9-16.9v-67.5c0-9.3-7.6-16.9-16.9-16.9-9.3 0-16.9 7.6-16.9 16.9v67.5c0 9.3 7.5 16.9 16.9 16.9zM478.6 431.1c9.3 0 16.9-7.6 16.9-16.9v-67.5c0-9.3-7.6-16.9-16.9-16.9-9.3 0-16.9 7.6-16.9 16.9v67.5c0 9.3 7.6 16.9 16.9 16.9z" fill="#211F1E" /><path d="M351.9 564m-14.8 0a14.8 14.8 0 1 0 29.6 0 14.8 14.8 0 1 0-29.6 0Z" fill="#211F1E" /><path d="M415.3 564m-14.8 0a14.8 14.8 0 1 0 29.6 0 14.8 14.8 0 1 0-29.6 0Z" fill="#211F1E" /><path d="M478.6 564m-14.8 0a14.8 14.8 0 1 0 29.6 0 14.8 14.8 0 1 0-29.6 0Z" fill="#211F1E" /><path d="M541.9 564m-14.8 0a14.8 14.8 0 1 0 29.6 0 14.8 14.8 0 1 0-29.6 0Z" fill="#211F1E" /><path d="M605.2 564m-14.8 0a14.8 14.8 0 1 0 29.6 0 14.8 14.8 0 1 0-29.6 0Z" fill="#211F1E" /><path d="M383.6 627.3m-14.8 0a14.8 14.8 0 1 0 29.6 0 14.8 14.8 0 1 0-29.6 0Z" fill="#211F1E" /><path d="M446.9 627.3m-14.8 0a14.8 14.8 0 1 0 29.6 0 14.8 14.8 0 1 0-29.6 0Z" fill="#211F1E" /><path d="M510.2 627.3m-14.8 0a14.8 14.8 0 1 0 29.6 0 14.8 14.8 0 1 0-29.6 0Z" fill="#211F1E" /><path d="M573.5 627.3m-14.8 0a14.8 14.8 0 1 0 29.6 0 14.8 14.8 0 1 0-29.6 0Z" fill="#211F1E" /></svg>