<?xml version="1.0" encoding="utf-8"?>
<!-- Uploaded to: SVG Repo, www.svgrepo.com, Generator: SVG Repo Mixer Tools -->
<svg width="800px" height="800px" viewBox="0 0 1024 1024" class="icon"  version="1.1" xmlns="http://www.w3.org/2000/svg"><path d="M102.6 306.2v429.3h374.8l32.8 56.4 30.9-56.4h363V306.2z" fill="#FBBA22" /><path d="M247.9 584.5h-58.6V432.7h58.6v151.8zM813.8 432.7v91.9c0 43.1-27.4 62.9-73.4 62.9-46 0-73.2-19.8-73.2-62.9v-91.9h58.6v91.2c0 10.8 2.2 18.9 14.6 18.9 12.6 0 14.8-8.3 14.8-18.9v-91.2h58.6z" fill="#211F1E" /><path d="M648.3 644.2c-8.1 8.1-21.1 8.1-29.2 0L522 547.1c-8.1-8.1-8.1-21.1 0-29.2 8.1-8.1 21.1-8.1 29.2 0l97.1 97.1c8.1 8.1 8.1 21.1 0 29.2z" fill="#AB978C" /><path d="M491.1 618.8l80.5-80.5-146-146-80.5 80.5s25.3 43.4 63.9 82c38.7 38.7 82.1 64 82.1 64z" fill="#FFFFFF" /><path d="M364.6 574.8c0 10.8-8.7 19.5-19.5 19.5s-19.5-8.7-19.5-19.5 16.3-48.1 19.5-48.1c0 0 19.5 37.3 19.5 48.1z" fill="#F4867B" /><path d="M658.5 610.4l-97.1-97.1-0.1-0.1L433 384.9c-3.9-3.9-10.8-3.9-14.7 0L357 446.2l-19.2 19.2c-3.3 3.3-4 8.5-1.6 12.6 1.1 1.8 26.4 45 65.6 84.2 39.2 39.1 82.3 64.5 84.2 65.6 1.6 1 3.4 1.4 5.2 1.4 2.7 0 5.4-1 7.4-3l44-44 72.1 72.1c5.9 5.9 13.7 9.1 22 9.1s16.1-3.2 22-9.1c11.9-12.1 11.9-31.8-0.2-43.9zM585 595.3l25.7-3.2 14.1 14.1-25.7 3.2-14.1-14.1zM425.6 407l131.2 131.3-47.9 47.9c-13.4-9.3-44.1-31.5-71.9-59.3-27.8-27.8-50.1-58.5-59.3-71.9l47.9-48z m64 198.6c-13.5-8.6-44.7-29.7-73.1-58.1-28.3-28.3-49.5-59.7-58.1-73.1l4.4-4.4c10.7 15.2 32.3 44.4 59.6 71.7 27.2 27.3 56.4 48.9 71.7 59.6l-4.5 4.3z m82-52.6l20.4 20.4-25.7 3.2-9.2-9.2 14.5-14.4z m72.1 86.6c-3.9 3.9-10.6 3.9-14.5 0L617.7 628l25.7-3.2 0.4 0.4c3.9 3.9 3.9 10.4-0.1 14.4z" fill="#211F1E" /><path d="M418.5 440c3 3 7.8 3 10.8 0 3-3 3-7.8 0-10.8-3-3-7.8-3-10.8 0-3 2.9-3 7.8 0 10.8zM343.5 516.2c-6.7 0-11.1 3.7-20.6 26.4-3.5 8.3-9.3 23.6-9.3 32.1 0 16.5 13.4 29.9 29.9 29.9s29.9-13.4 29.9-29.9c0-12-14.5-41-20.7-53-1.8-3.3-5.3-5.5-9.2-5.5z m0 67.7c-5 0-9.1-4.1-9.1-9.1 0-3.9 4.2-15.8 8.5-25.9 5.4 11.7 9.7 22.4 9.8 25.9-0.1 5-4.2 9.1-9.2 9.1z" fill="#211F1E" /></svg>