<?xml version="1.0" encoding="utf-8"?>
<!-- Uploaded to: SVG Repo, www.svgrepo.com, Generator: SVG Repo Mixer Tools -->
<svg width="800px" height="800px" viewBox="0 0 1024 1024" class="icon"  version="1.1" xmlns="http://www.w3.org/2000/svg"><path d="M340.4 274.1h346.7v480H340.4z" fill="#97B353" /><path d="M413.8 360.7h200v120h-200z" fill="#CDE9E3" /><path d="M513.7 674.1m-20 0a20 20 0 1 0 40 0 20 20 0 1 0-40 0Z" fill="#CDE9E3" /><path d="M687.1 260.7H340.4c-7.4 0-13.3 6-13.3 13.3v480c0 7.4 6 13.3 13.3 13.3h346.7c7.4 0 13.3-6 13.3-13.3V274c0-7.3-6-13.3-13.3-13.3z m-13.4 480h-320V287.4h320v453.3z" fill="#211F1E" /><path d="M413.8 487.4h200c3.7 0 6.7-3 6.7-6.7v-120c0-3.7-3-6.7-6.7-6.7h-200c-3.7 0-6.7 3-6.7 6.7v120c0 3.7 3 6.7 6.7 6.7z m6.6-120h186.7v106.7H420.4V367.4z" fill="#211F1E" /><path d="M520.4 420.9h-66.5a6.7 6.7 0 0 0 0 13.4h66.5c3.7 0 6.7-3 6.7-6.7-0.1-3.7-3.1-6.7-6.7-6.7zM573.8 394.2H455.3a6.7 6.7 0 0 0 0 13.4h118.5c3.7 0 6.7-3 6.7-6.7-0.1-3.7-3-6.7-6.7-6.7zM513.7 647.4c-14.7 0-26.7 12-26.7 26.7s12 26.7 26.7 26.7 26.7-12 26.7-26.7-11.9-26.7-26.7-26.7z m0 40c-7.4 0-13.3-6-13.3-13.3 0-7.4 6-13.3 13.3-13.3 7.4 0 13.3 6 13.3 13.3 0.1 7.3-5.9 13.3-13.3 13.3z" fill="#211F1E" /></svg>