<?xml version="1.0" encoding="utf-8"?>
<!-- Uploaded to: SVG Repo, www.svgrepo.com, Generator: SVG Repo Mixer Tools -->
<svg width="800px" height="800px" viewBox="0 0 1024 1024" class="icon"  version="1.1" xmlns="http://www.w3.org/2000/svg"><path d="M538.4 728.9c0 13.3-11.5 24.2-25.8 24.2-14.2 0-25.8-10.8-25.8-24.2V537.8c0-13.3 11.5-24.2 25.8-24.2 14.2 0 25.8 10.8 25.8 24.2v191.1z" fill="#EFE2C2" /><path d="M609.2 572.7V371.3c0-52.5-43.3-95-96.7-95-53.4 0-96.7 42.6-96.7 95v201.4h193.4z" fill="#E96938" /><path d="M566.4 375.4c-3.1 0-5.9-2.3-6.4-5.5-6.8-44.7-43.3-48.1-44.9-48.2-3.5-0.3-6.2-3.4-5.9-6.9 0.3-3.5 3.4-6.2 6.9-5.9 0.5 0 48.3 4.1 56.7 59.2 0.5 3.5-1.9 6.8-5.4 7.3h-1z" fill="#FFFFFF" /><path d="M512.6 263.3c-60.4 0-109.5 48.4-109.5 107.9v201.4c0 7.1 5.8 12.9 12.9 12.9h58v143.3c0 20.4 17.3 37.1 38.7 37.1 21.3 0 38.7-16.6 38.7-37.1V585.6h58c7.1 0 12.9-5.8 12.9-12.9V371.3c-0.2-59.6-49.3-108-109.7-108z m12.9 465.6c0 6.2-5.8 11.3-12.9 11.3-7.1 0-12.9-5.1-12.9-11.3V585.6h25.8v143.3z m70.9-169.1H428.8V371.3c0-45.3 37.6-82.2 83.8-82.2 46.2 0 83.8 36.9 83.8 82.2v188.5z" fill="#211F1E" /></svg>