<?xml version="1.0" encoding="utf-8"?>
<!-- Uploaded to: SVG Repo, www.svgrepo.com, Generator: SVG Repo Mixer Tools -->
<svg width="800px" height="800px" viewBox="0 0 1024 1024" class="icon"  version="1.1" xmlns="http://www.w3.org/2000/svg"><path d="M400.1 271.8h86.5v486.7h-86.5z" fill="#F7BE29" /><path d="M486.6 261h-86.5c-6 0-10.8 4.8-10.8 10.8v486.7c0 6 4.8 10.8 10.8 10.8h86.5c6 0 10.8-4.8 10.8-10.8V271.8c0.1-5.9-4.8-10.8-10.8-10.8z m-75.7 486.7V282.6h64.9v60.1h-27c-3 0-5.4 2.4-5.4 5.4 0 3 2.4 5.4 5.4 5.4h27v16.2h-16.2c-3 0-5.4 2.4-5.4 5.4 0 3 2.4 5.4 5.4 5.4h16.2v16.2h-16.2c-3 0-5.4 2.4-5.4 5.4 0 3 2.4 5.4 5.4 5.4h16.2v16.2h-27c-3 0-5.4 2.4-5.4 5.4 0 3 2.4 5.4 5.4 5.4h27v16.2h-16.2c-3 0-5.4 2.4-5.4 5.4 0 3 2.4 5.4 5.4 5.4h16.2v16.2h-16.2c-3 0-5.4 2.4-5.4 5.4 0 3 2.4 5.4 5.4 5.4h16.2V505h-27c-3 0-5.4 2.4-5.4 5.4 0 3 2.4 5.4 5.4 5.4h27V532h-16.2c-3 0-5.4 2.4-5.4 5.4 0 3 2.4 5.4 5.4 5.4h16.2V559h-16.2c-3 0-5.4 2.4-5.4 5.4 0 3 2.4 5.4 5.4 5.4h16.2V586h-27c-3 0-5.4 2.4-5.4 5.4 0 3 2.4 5.4 5.4 5.4h27V613h-16.2c-3 0-5.4 2.4-5.4 5.4 0 3 2.4 5.4 5.4 5.4h16.2V640h-16.2c-3 0-5.4 2.4-5.4 5.4 0 3 2.4 5.4 5.4 5.4h16.2V667h-27c-3 0-5.4 2.4-5.4 5.4 0 3 2.4 5.4 5.4 5.4h27V694h-16.2c-3 0-5.4 2.4-5.4 5.4 0 3 2.4 5.4 5.4 5.4h16.2V721h-16.2c-3 0-5.4 2.4-5.4 5.4 0 3 2.4 5.4 5.4 5.4h16.2v15.6h-64.9z" fill="#211F1E" /><path d="M443.4 314.9m-10.8 0a10.8 10.8 0 1 0 21.6 0 10.8 10.8 0 1 0-21.6 0Z" fill="#211F1E" /><path d="M652.6 575.3c0 6-4.8 10.8-10.8 10.8h-64.9c-6 0-10.8-4.8-10.8-10.8V445.5c0-6 4.8-10.8 10.8-10.8h64.9c6 0 10.8 4.8 10.8 10.8v129.8z" fill="#F07067" /><path d="M566.1 477.9h86.5v64.9h-86.5z" fill="#F2E2C8" /><path d="M641.8 423.9h-64.9c-11.9 0-21.6 9.7-21.6 21.6V575.2c0 11.9 9.7 21.6 21.6 21.6h64.9c11.9 0 21.6-9.7 21.6-21.6V445.5c0-11.9-9.7-21.6-21.6-21.6z m0 21.6v21.6h-64.9v-21.6h64.9z m-64.9 43.2h64.9V532h-64.9v-43.3z m0 86.6v-21.6h64.9v21.6h-64.9z" fill="#211F1E" /><path d="M609.3 510.4m-10.8 0a10.8 10.8 0 1 0 21.6 0 10.8 10.8 0 1 0-21.6 0Z" fill="#211F1E" /></svg>