<?xml version="1.0" encoding="utf-8"?>
<!-- Uploaded to: SVG Repo, www.svgrepo.com, Generator: SVG Repo Mixer Tools -->
<svg width="800px" height="800px" viewBox="0 0 1024 1024" class="icon"  version="1.1" xmlns="http://www.w3.org/2000/svg"><path d="M521.5 600.8l31.4 103.6h193.2V313.7H277.2v390.7H469l32.5-103.6z" fill="#3498DB" /><path d="M462.8 323.4h97.7V382h-97.7z" fill="#CDE9E3" /><path d="M746.1 294.1H277.2c-10.8 0-19.5 8.7-19.5 19.5v390.8c0 10.8 8.7 19.5 19.5 19.5H469c8.5 0 16.1-5.5 18.6-13.7l23.7-69.3 22.8 69.2c2.5 8.2 10.1 13.9 18.7 13.9h193.3c10.8 0 19.5-8.7 19.5-19.5V313.7c0.1-10.8-8.7-19.6-19.5-19.6z m-273.5 78v-39h78.2v39h-78.2z m-78.1 0v-39H453v39h-58.5z m-97.8 19.6h78.6c-1.5 24.9-9.7 45.1-24.6 59.8-16.6 16.5-38.4 23.3-54 26.2v-86z m273.6-58.5H629v39h-58.7v-39z m156.3 144.4c-15-2.9-35.9-9.6-52-25.5-15-14.8-23.2-35.1-24.7-60.4h76.8v85.9z m0-105.5h-78.1v-39h78.1v39zM375 333.2v39h-78.3v-39H375z m192.4 351.7l-27.2-83.6c-2.5-8.2-10.1-13.9-18.7-13.9h-19.9c-8.5 0-16.1 5.5-18.6 13.7l-28.2 83.8H296.7V497.5c18.4-2.9 46.1-10.8 67.6-32 18.7-18.5 28.9-43.3 30.5-73.8H502c0 0.2-0.1 0.4-0.1 0.6v67.8c0 5.4 4.4 9.8 9.8 9.8s9.8-4.4 9.8-9.8v-67.8c0-0.2-0.1-0.4-0.1-0.6h109c1.6 30.8 11.8 55.8 30.5 74.3 21 20.7 47.8 28.5 65.7 31.5v187.4H567.4z" fill="#211F1E" /></svg>