<?xml version="1.0" encoding="utf-8"?>
<!-- Uploaded to: SVG Repo, www.svgrepo.com, Generator: SVG Repo Mixer Tools -->
<svg width="800px" height="800px" viewBox="0 0 1024 1024" class="icon"  version="1.1" xmlns="http://www.w3.org/2000/svg"><path d="M770.6 584.1c0 143.2-116.1 259.4-259.4 259.4-143.3 0-259.4-116.1-259.4-259.4 0-143.3 116.1-259.4 259.4-259.4 143.2 0 259.4 116.1 259.4 259.4z" fill="#2ECC71" /><path d="M705.7 584.1c0 107.5-87.1 194.5-194.5 194.5s-194.5-87.1-194.5-194.5 87.1-194.5 194.5-194.5c107.4-0.1 194.5 87 194.5 194.5z" fill="#EFE2C2" /><path d="M548.2 584.1c0 20.5-16.6 37.1-37.1 37.1S474 604.6 474 584.1s16.6-37.1 37.1-37.1 37.1 16.6 37.1 37.1z" fill="#2ECC71" /><path d="M529.7 306.8v-22.4c21.6-7.7 37.1-28.2 37.1-52.3 0-30.7-24.9-55.6-55.6-55.6-30.7 0-55.6 24.9-55.6 55.6 0 24.1 15.5 44.7 37.1 52.3v22.4C348 316.4 233.2 437.1 233.2 584.1c0 153.3 124.7 277.9 277.9 277.9S789 737.3 789 584.1c0.1-147-114.7-267.7-259.3-277.3z m222.1 268h-37.1c-4.7-105-89.3-189.6-194.3-194.3v-37.1c125.5 4.8 226.6 106 231.4 231.4zM511.2 213.5c10.2 0 18.5 8.3 18.5 18.5s-8.3 18.5-18.5 18.5-18.5-8.3-18.5-18.5c-0.1-10.2 8.2-18.5 18.5-18.5z m-9.3 129.9v37.1c-105 4.7-189.6 89.3-194.3 194.3h-37.1c4.8-125.4 105.9-226.6 231.4-231.4z m0 481.3c-125.4-4.8-226.6-105.9-231.4-231.4h37.1c4.7 105 89.3 189.6 194.3 194.3v37.1z m9.3-74.2c-5.1 0-9.3 4.1-9.3 9.3v9.1c-94.8-4.7-170.8-80.8-175.5-175.5h9c5.1 0 9.3-4.1 9.3-9.3 0-5.1-4.1-9.3-9.3-9.3h-9c4.7-94.8 80.8-170.8 175.5-175.5v9c0 5.1 4.1 9.3 9.3 9.3 5.1 0 9.3-4.1 9.3-9.3v-9C615.2 404 691.3 480 696 574.8h-9c-5.1 0-9.3 4.1-9.3 9.3 0 5.1 4.1 9.3 9.3 9.3h9c-4.7 94.8-80.8 170.8-175.5 175.5v-9.1c-0.1-5.2-4.2-9.3-9.3-9.3z m9.2 74.2v-37.1c105-4.7 189.6-89.3 194.3-194.3h37.1C747 718.8 645.9 819.9 520.4 824.7z" fill="#211F1E" /><path d="M562.1 584.1c0-7.3-1.6-14.2-4.3-20.4l59.1-59.1c7.2-7.2 7.2-19 0-26.2-7.2-7.2-19-7.2-26.2 0l-59.1 59.1c-6.3-2.8-13.2-4.3-20.4-4.3-28.1 0-51 22.9-51 51 0 7.3 1.6 14.2 4.3 20.4l-59.1 59.1c-7.2 7.2-7.2 19 0 26.2 3.6 3.6 8.4 5.4 13.1 5.4 4.7 0 9.5-1.8 13.1-5.4l59.1-59.1c6.3 2.8 13.2 4.3 20.4 4.3 28.2-0.1 51-22.9 51-51z m-50.9 23.1c-12.8 0-23.2-10.4-23.2-23.2s10.4-23.2 23.2-23.2c12.8 0 23.2 10.4 23.2 23.2s-10.5 23.2-23.2 23.2z" fill="#211F1E" /></svg>