<?xml version="1.0" encoding="utf-8"?>
<!-- Uploaded to: SVG Repo, www.svgrepo.com, Generator: SVG Repo Mixer Tools -->
<svg width="800px" height="800px" viewBox="0 0 1024 1024" class="icon"  version="1.1" xmlns="http://www.w3.org/2000/svg"><path d="M348.7 409.4v-53.8c0-19.5-15.6-35.3-34.8-35.3-19.2 0-34.8 15.8-34.8 35.3v365.6h445.3v-60.1" fill="#96C8D1" /><path d="M312.9 320.4c19.2 0 34.8 15.8 34.8 35.3V662H773V355.7c0-19.5-15.6-35.3-34.8-35.3H312.9" fill="#96C8D1" /><path d="M783.8 355.6c0-27.6-22.3-50.1-49.6-50.1H311.7c-0.8 0-1.7 0.1-2.5 0.2-0.2 0-0.4 0-0.6 0.1h-0.1c-20.7 2.3-37.6 17.5-42.7 37.4h-5c-2 0-4-0.2-5.9-0.6 5.8-8.4 9.3-18.6 9.3-29.6 0-28.6-23.3-51.9-51.9-51.9-28.6 0-51.9 23.3-51.9 51.9 0 28.6 23.3 51.9 51.9 51.9 5.2 0 10.1-0.8 14.8-2.2 9.7 6.4 21.3 10.1 33.8 10.1h3.3v348.3c0 8.2 6.6 14.8 14.8 14.8h445.3c8.2 0 14.8-6.6 14.8-14.8v-44.5h29.7c8.2 0 14.8-6.6 14.8-14.8V409.3l0.2-53.7z m-593.7-42.5c0-12.3 10-22.3 22.3-22.3s22.3 10 22.3 22.3c0 4-1.2 7.8-3 11-1.8-4-2.8-8.4-2.8-13 0-8.2-6.6-14.8-14.8-14.8s-14.8 6.6-14.8 14.8c0 7.9 1.5 15.4 4.2 22.3-8-3.5-13.4-11.3-13.4-20.3z m168.3 265.8c3-0.9 5.5-2.1 7.8-3.2 4.2-2 7.5-3.6 14.8-3.6s10.6 1.6 14.8 3.6c4.9 2.4 10.5 5 21.2 5s16.3-2.7 21.2-5c4.2-2 7.5-3.6 14.8-3.6 7.3 0 10.6 1.6 14.8 3.6 4.9 2.4 10.5 5 21.2 5s16.2-2.7 21.2-5c4.2-2 7.5-3.6 14.8-3.6 7.3 0 10.6 1.6 14.8 3.6 4.9 2.4 10.5 5 21.2 5s16.3-2.7 21.2-5c4.2-2 7.5-3.6 14.7-3.6s10.6 1.6 14.8 3.6c4.9 2.4 10.5 5 21.2 5s16.2-2.7 21.2-5c4.2-2 7.5-3.6 14.7-3.6 7.3 0 10.6 1.6 14.7 3.6 4.9 2.4 10.5 5 21.2 5s16.2-2.7 21.2-5c4.2-2 7.5-3.6 14.7-3.6 6.7 0 10.1 1.4 13.8 3.2v17.9c-3.5-1.1-7.9-2-13.8-2-10.7 0-16.2 2.7-21.2 5-4.2 2-7.5 3.6-14.7 3.6-7.3 0-10.6-1.6-14.7-3.6-4.9-2.4-10.5-5-21.2-5s-16.2 2.7-21.2 5c-4.2 2-7.5 3.6-14.7 3.6-7.3 0-10.6-1.6-14.8-3.6-4.9-2.4-10.5-5-21.2-5s-16.2 2.7-21.2 5c-4.2 2-7.5 3.6-14.8 3.6-7.3 0-10.6-1.6-14.8-3.6-4.9-2.4-10.5-5-21.2-5s-16.3 2.7-21.2 5c-4.2 2-7.5 3.6-14.7 3.6-7.3 0-10.6-1.6-14.7-3.6-4.9-2.4-10.5-5-21.2-5s-16.3 2.7-21.2 5c-4.2 2-7.5 3.6-14.8 3.6-7.3 0-10.6-1.6-14.8-3.6-4.9-2.4-10.5-5-21.2-5s-16.3 2.7-21.2 5c-0.5 0.2-0.9 0.4-1.3 0.6v-17.9z m375.8-243.7c11 0 19.9 9.2 19.9 20.4V559.2c-3.5-1.1-7.9-2-13.8-2-10.7 0-16.2 2.7-21.2 5-4.2 2-7.5 3.6-14.7 3.6-7.3 0-10.6-1.6-14.7-3.6-4.9-2.4-10.5-5-21.2-5s-16.2 2.7-21.2 5c-4.2 2-7.5 3.6-14.7 3.6-7.3 0-10.6-1.6-14.8-3.6-4.9-2.4-10.5-5-21.2-5s-16.2 2.7-21.2 5c-4.2 2-7.5 3.6-14.8 3.6-7.3 0-10.6-1.6-14.8-3.6-4.9-2.4-10.5-5-21.2-5s-16.3 2.7-21.2 5c-4.2 2-7.5 3.6-14.7 3.6-7.3 0-10.6-1.6-14.7-3.6-4.9-2.4-10.5-5-21.2-5s-16.3 2.7-21.2 5c-4.2 2-7.5 3.6-14.8 3.6-7.3 0-10.6-1.6-14.8-3.6-4.9-2.4-10.5-5-21.2-5s-16.3 2.7-21.2 5c-0.5 0.2-0.9 0.4-1.3 0.6V355.5c0-7.3-1.5-14.2-4.3-20.4h380.2z m-422.8 0.3c5.4 0.7 10 3.6 13.2 7.8h-26.4c3.1-4.3 7.8-7.1 13.2-7.8z m398.2 370.9H294V372.9h31.2c1.3 0 2.5-0.2 3.6-0.5v289.5c0 3.9 1.6 7.7 4.3 10.5 2.8 2.8 6.6 4.3 10.5 4.3h366v29.7z m19.2-59.4c-1.4-0.4-2.9-0.7-4.4-0.7-1.6 0-3 0.3-4.4 0.7H358.5v-34.2c3-0.9 5.5-2.1 7.8-3.2 4.2-2 7.5-3.6 14.8-3.6s10.6 1.6 14.8 3.6c4.9 2.4 10.5 5 21.2 5s16.3-2.7 21.2-5c4.2-2 7.5-3.6 14.8-3.6 7.3 0 10.6 1.6 14.8 3.6 4.9 2.4 10.5 5 21.2 5s16.2-2.7 21.2-5c4.2-2 7.5-3.6 14.8-3.6 7.3 0 10.6 1.6 14.8 3.6 4.9 2.4 10.5 5 21.2 5s16.3-2.7 21.2-5c4.2-2 7.5-3.6 14.7-3.6s10.6 1.6 14.8 3.6c4.9 2.4 10.5 5 21.2 5s16.2-2.7 21.2-5c4.2-2 7.5-3.6 14.7-3.6 7.3 0 10.6 1.6 14.7 3.6 4.9 2.4 10.5 5 21.2 5s16.2-2.7 21.2-5c4.2-2 7.5-3.6 14.7-3.6 6.7 0 10.1 1.4 13.8 3.2V647h-25.7z" fill="#211F1E" /></svg>