<?xml version="1.0" encoding="utf-8"?>
<!-- Uploaded to: SVG Repo, www.svgrepo.com, Generator: SVG Repo Mixer Tools -->
<svg width="800px" height="800px" viewBox="0 0 1024 1024" class="icon"  version="1.1" xmlns="http://www.w3.org/2000/svg"><path d="M374.5 273.3h88.7v76h-88.7zM374.5 349.3h88.7v316.8h-88.7zM456.8 666.1h-76l22.8 88.8h31.1z" fill="#96C96C" /><path d="M406.1 393.7h25.3v228.1h-25.3z" fill="#538054" /><path d="M463.2 260.6h-88.7c-7 0-12.7 5.7-12.7 12.7v392.8c0 5.7 3.8 10.5 9 12.1l20.5 79.8c1.4 5.6 6.5 9.5 12.3 9.5h31.2c5.8 0 10.9-4 12.3-9.6l19.9-79.7c5.2-1.6 8.9-6.4 8.9-12.1V273.3c-0.1-7-5.7-12.7-12.7-12.7zM387.1 324h63.4v12.7h-63.4V324z m0 38h63.4v291.5h-63.4V362z m63.4-76v25.3h-63.4V286h63.4z m-25.7 456.2h-11.4l-16.3-63.4h43.5l-15.8 63.4z" fill="#211F1E" /><path d="M431.5 387.3h-25.3c-3.5 0-6.3 2.8-6.3 6.3v228.1c0 3.5 2.8 6.3 6.3 6.3h25.3c3.5 0 6.3-2.8 6.3-6.3v-228c0-3.5-2.8-6.4-6.3-6.4z m-6.3 228.2h-12.7V400h12.7v215.5z" fill="#211F1E" /><path d="M551.9 273.3h88.7v76h-88.7zM551.9 349.3h88.7v316.8h-88.7zM634.3 666.1h-76l22.7 88.8h31.2z" fill="#F68F3B" /><path d="M583.6 393.7h25.3v228.1h-25.3z" fill="#F15A23" /><path d="M640.6 260.6h-88.7c-7 0-12.7 5.7-12.7 12.7v392.8c0 5.7 3.8 10.5 9 12.1l20.5 79.8c1.4 5.6 6.5 9.5 12.3 9.5h31.2c5.8 0 10.9-4 12.3-9.6l19.9-79.7c5.2-1.6 9-6.4 9-12.1V273.3c-0.1-7-5.8-12.7-12.8-12.7z m-76 63.4H628v12.7h-63.4V324z m0 38H628v291.5h-63.4V362z m63.4-76v25.3h-63.4V286H628z m-25.7 456.2h-11.4l-16.3-63.4h43.5l-15.8 63.4z" fill="#211F1E" /><path d="M608.9 387.3h-25.3c-3.5 0-6.3 2.8-6.3 6.3v228.1c0 3.5 2.8 6.3 6.3 6.3h25.3c3.5 0 6.3-2.8 6.3-6.3v-228c0.1-3.5-2.8-6.4-6.3-6.4z m-6.3 228.2h-12.7V400h12.7v215.5z" fill="#211F1E" /></svg>