<?xml version="1.0" encoding="utf-8"?>
<!-- Uploaded to: SVG Repo, www.svgrepo.com, Generator: SVG Repo Mixer Tools -->
<svg width="800px" height="800px" viewBox="0 0 1024 1024" class="icon"  version="1.1" xmlns="http://www.w3.org/2000/svg"><path d="M782.9 506.3c-15.4-21-40.8-37.9-91-37.9-38.7 0-74.6 13.3-91 37.9-15.4-21-40.8-37.9-91-37.9-38.7 0-74.6 13.3-91 37.9-15.4-21-40.8-37.9-91-37.9-38.7 0-74.6 13.3-91 37.9 0-145.3 122.3-263 273.1-263 150.6-0.1 272.9 117.7 272.9 263z" fill="#F07067" /><path d="M530 223.5v-26.1c0-11.2-9.1-20.3-20.2-20.3-11.2 0-20.2 9.1-20.2 20.3v26.1c-152.4 10.1-273.1 133-273.1 282.7 0 8.9 5.8 16.8 14.4 19.4 1.9 0.6 3.9 0.9 5.9 0.9 6.6 0 13-3.3 16.8-9 11.7-17.6 40.9-28.9 74.2-28.9 47.6 0 65.4 16.9 74.7 29.6 3.9 5.3 10 8.2 16.8 8.3 6.6-0.1 12.7-3.5 16.4-9 9.3-13.9 29.5-23.8 54-27.3v307.5c0 14.9-12.1 27-27 27s-27-12.1-27-27c0-11.2-9.1-20.2-20.2-20.2-11.2 0-20.2 9.1-20.2 20.2 0 37.2 30.3 67.5 67.4 67.5s67.4-30.3 67.4-67.5V489.8c32.7 4 46.7 17.7 54.5 28.4 3.9 5.3 10 8.2 16.7 8.3 6.6-0.1 12.7-3.5 16.4-9 11.7-17.6 40.9-28.9 74.2-28.9 47.6 0 65.4 16.9 74.7 29.6 5.2 7.1 14.3 10 22.6 7.3s14-10.5 14-19.2c-0.1-149.8-120.8-272.7-273.2-282.8z m161.9 224.6c-36.8 0-69.1 10.3-91 28.4-22.1-19.1-52.1-28.4-91.1-28.4-36.8 0-69.1 10.3-91 28.4-22.1-19.1-52.1-28.4-91.1-28.4-24.8 0-47.6 4.7-66.5 13.3 22-112.6 125.1-198.1 248.6-198.1 123.2 0 226.2 85.1 248.4 197.4-18.3-8.4-40.3-12.6-66.3-12.6z" fill="#211F1E" /><path d="M414.1 313.3c-9.4 0-17.1 7.7-17.1 17.1 0 9.4 7.6 17.1 17.1 17.1 9.4 0 17.1-7.7 17.1-17.1 0-9.5-7.7-17.1-17.1-17.1zM509.8 313.3c-9.4 0-17.1 7.7-17.1 17.1 0 9.4 7.6 17.1 17.1 17.1 9.4 0 17.1-7.7 17.1-17.1 0-9.5-7.7-17.1-17.1-17.1zM605.9 313.3c-9.4 0-17.1 7.7-17.1 17.1 0 9.4 7.6 17.1 17.1 17.1s17.1-7.7 17.1-17.1c0-9.5-7.7-17.1-17.1-17.1zM361 376.5c-9.4 0-17.1 7.7-17.1 17.1 0 9.4 7.6 17.1 17.1 17.1 9.4 0 17.1-7.7 17.1-17.1 0-9.4-7.7-17.1-17.1-17.1zM462.6 376.5c-9.4 0-17.1 7.7-17.1 17.1 0 9.4 7.6 17.1 17.1 17.1 9.4 0 17.1-7.7 17.1-17.1-0.1-9.4-7.7-17.1-17.1-17.1zM559.7 376.5c-9.4 0-17.1 7.7-17.1 17.1 0 9.4 7.6 17.1 17.1 17.1s17.1-7.7 17.1-17.1c0-9.4-7.6-17.1-17.1-17.1zM659.4 376.5c-9.4 0-17.1 7.7-17.1 17.1 0 9.4 7.6 17.1 17.1 17.1 9.4 0 17.1-7.7 17.1-17.1 0-9.4-7.7-17.1-17.1-17.1z" fill="#211F1E" /></svg>